<?xml version="1.0" encoding="UTF-8"?>
<svg id="Layer_1" xmlns="http://www.w3.org/2000/svg" version="1.1" viewBox="0 0 603.6 396.6">
  <!-- Generator: Adobe Illustrator 30.0.0, SVG Export Plug-In . SVG Version: 2.1.1 Build 123)  -->
  <g>
    <path d="M344.3,246.8v105.1l44.6,44.6,44.6-44.6v-105.1h-89.2,0ZM403.7,339.6l-14.9,14.9-14.9-14.9v-63.1h29.7v63.1h0Z"/>
    <path d="M174.1,351.9v-18.8h29.7v6.5l14.9,14.9,14.9-14.9v-8.8l-14.9-18.4,14.9-18.4v-17.5h-59.5v-29.7h89.2v53.5c-.3.3-8.7,12.2-8.7,12.2l8.7,12.2v27.3s-44.2,44.2-44.6,44.6c-.3-.3-44.6-44.6-44.6-44.6h0Z"/>
    <path d="M603.6,246.8h-89.2v53.4l8.7,12.2-8.7,12.2v27.3s44.3,44.3,44.6,44.6c.4-.4,44.6-44.6,44.6-44.6v-27.3l-8.7-12.2,8.7-12.2v-53.4h0ZM573.9,330.8v8.8l-14.9,14.9-14.9-14.9v-8.8l14.9-18.4-14.9-18.4v-17.5h29.7v17.5l-14.9,18.4,14.9,18.4h0Z"/>
    <path d="M63.5,246.8v8.2c0-.5-59.8,59.8-59.9,59.7v48.1h59.9v33.7c6.2-6.3,24.1-23.9,30-30v-119.8h-30ZM63.5,333.2H25.7c1.8-2,35.4-33.5,37.8-35.9v35.9Z"/>
  </g>
  <g>
    <path d="M603.6,105.2h0s-44.3,44.3-44.6,44.6c-.4-.4-44.6-44.6-44.6-44.6v-27.3s8.7-12.2,8.7-12.2c0,0-8.4-11.9-8.7-12.2V0h89.2v29.7h-59.5s0,17.5,0,17.5l14.9,18.4-14.9,18.4v8.8s14.9,14.9,14.9,14.9l14.9-14.9v-6.5h29.7v18.8s0,0,0,0Z"/>
    <path d="M218.7,149.6l-44.9-44.9V0h89.9v104.7l-44.9,44.9ZM203.6,92.3l15,15,15-15V29.9h-30.1v62.4Z"/>
    <path d="M388.9,149.6l-44.9-44.9V0h58.3l31.6,31.8v72.9l-44.9,44.9ZM373.8,92.3l15,15,15-15v-48.2l-14.1-14.2h-16v62.4Z"/>
    <path d="M29.7,86.4V29.7h59.5V0H0v105.2s44.2,44.2,44.6,44.6c.3-.3,44.6-44.6,44.6-44.6h0v-18.8h-29.7v6.5l-14.9,14.9-14.9-14.9v-6.4Z"/>
  </g>
</svg>